# xmcd CD database file
#
# Track frame offsets:
#	150
#	12400
#	22460
#	40162
#	60142
#	72300
#	85972
#	102480
#	113620
#	131622
#	141455
#	154260
#	166607
#	180967
#	194250
#
# Disc length: 2999 seconds
#
# Revision: 4
# Processed by: cddbd v1.4PL0 Copyright (c) Steve Scherf et al.
# Submitted via: CDex 1.50
#
DISCID=c70bb50f
DTITLE=The Sixth Great Lake - Up the Country
DYEAR=2001
DGENRE=Country
TTITLE0=Duck Pond
TTITLE1=Across the Northern Border 
TTITLE2=Up the Country
TTITLE3=The Ballad of a Sometimes Traveller
TTITLE4=Cannon Beach
TTITLE5=Descending Star
TTITLE6=Blue
TTITLE7=Last in Line
TTITLE8=You Make the Call
TTITLE9=Shade of Love
TTITLE10=27 Forever
TTITLE11=Spin Your Wheels 
TTITLE12=300 Miles
TTITLE13=Rockin' Chair
TTITLE14=Lovely Today
EXTD=YEAR: 2001
EXTT0=
EXTT1=
EXTT2=
EXTT3=
EXTT4=
EXTT5=
EXTT6=
EXTT7=
EXTT8=
EXTT9=
EXTT10=
EXTT11=
EXTT12=
EXTT13=written by J.R. Robertson (1970)
EXTT14=
PLAYORDER=
